<svg width="256" height="256" viewBox="0 0 256 256" fill="none" xmlns="http://www.w3.org/2000/svg">
<path fill-rule="evenodd" clip-rule="evenodd" d="M176.379 96.9798C156.671 108.119 136.962 117.545 115.539 125.258C100.115 130.399 98.4013 117.545 111.255 111.547C129.25 102.121 147.245 92.6952 165.24 84.1262C183.235 74.7003 190.09 88.4107 176.379 96.9798Z" fill="black"/>
<path fill-rule="evenodd" clip-rule="evenodd" d="M22.994 117.545C14.425 113.261 12.2827 96.9797 15.2819 95.2659C18.281 93.5521 38.4182 92.6952 49.5579 89.2676C112.969 68.702 177.236 48.1363 240.647 25C249.216 48.1363 194.374 153.535 183.235 180.099C179.807 186.954 170.381 200.665 162.669 191.239C147.245 170.673 95.8306 217.803 80.4064 228.943C55.5563 246.938 61.5546 178.385 62.4115 170.673C68.4098 125.257 48.701 130.399 22.994 117.545ZM93.2599 148.394C96.6875 134.683 153.243 164.675 161.812 168.103C165.24 169.816 167.81 165.532 169.524 162.104C176.379 147.537 220.081 63.5606 215.797 54.1347C158.384 69.5589 101.829 87.5538 46.9872 108.976C53.8424 112.404 74.4081 121.83 77.8357 126.971C89.8323 141.539 69.2667 164.675 78.6926 180.099C85.5478 170.673 90.6892 160.39 93.2599 148.394ZM126.679 174.958C100.972 158.677 96.6875 180.956 88.1185 201.522C91.5461 205.806 122.395 178.385 126.679 174.958Z" fill="black"/>
</svg>
